<svg width="24" height="24" viewBox="0 0 24 24" fill="none" xmlns="http://www.w3.org/2000/svg">
<path d="M24 12C24 14.2707 23.3557 16.4948 22.1421 18.4139C20.9284 20.333 19.1952 21.8684 17.1436 22.8417C15.0921 23.815 12.8066 24.1863 10.5525 23.9124C8.29835 23.6385 6.16822 22.7306 4.40951 21.2943C2.6508 19.858 1.3357 17.9522 0.616978 15.7983C-0.101745 13.6443 -0.19459 11.3307 0.349229 9.12606C0.893047 6.92146 2.05121 4.91639 3.68917 3.34378C5.32714 1.77117 7.37767 0.69557 9.60259 0.241922L9.9622 2.00563C8.07102 2.39123 6.32807 3.3055 4.9358 4.64221C3.54353 5.97893 2.55909 7.68324 2.09684 9.55715C1.6346 11.4311 1.71352 13.3977 2.32443 15.2285C2.93535 17.0594 4.05318 18.6793 5.54808 19.9002C7.04299 21.121 8.8536 21.8927 10.7696 22.1255C12.6856 22.3583 14.6283 22.0428 16.3721 21.2155C18.1159 20.3882 19.5892 19.0831 20.6208 17.4518C21.6524 15.8206 22.2 13.9301 22.2 12H24Z" fill="#F3BB1C"/>
<path fill-rule="evenodd" clip-rule="evenodd" d="M14.7426 9.21572C15.0302 8.92809 15.4965 8.92809 15.7842 9.21572C16.0683 9.49982 16.0717 9.95827 15.7946 10.2467L11.8742 15.1472C11.8685 15.1543 11.8625 15.161 11.8561 15.1674C11.5684 15.4551 11.1021 15.4551 10.8145 15.1674L8.2156 12.5686C7.92797 12.2809 7.92797 11.8146 8.2156 11.527C8.50323 11.2393 8.96956 11.2393 9.25719 11.527L11.3131 13.5828L14.723 9.23775C14.7291 9.23002 14.7356 9.22267 14.7426 9.21572Z" fill="#F3BB1C"/>
</svg>
